<svg xmlns="http://www.w3.org/2000/svg" viewBox="0 0 500 500">
  <path d="M213.76810937381975 264.5819170632223Q214.8286124329632 258.92590074779065 216.9496185512501 250.17675050985727Q219.07062466953698 241.4276002719239 222.16375859203868 229.93881713120328Q225.25689251454037 218.4500339904827 229.23377898632828 204.3099932019035Q233.21066545811618 190.1699524133243 237.98292922426165 173.9089055064582Q240.8109373819775 164.5411284840245 243.55057028476472 159.06186267845007Q246.29020318755192 153.58259687287563 249.56008761991086 151.2848402447315Q252.8299720522698 148.98708361658737 257.07198428884357 148.98708361658737Q264.6722562127049 148.98708361658737 271.9190271168517 155.350101971448Q279.1657980209985 161.71312032630865 286.9428204547171 170.10876954452755Q294.71984288843566 178.50441876274647 303.5573683812977 184.77906186267847Q312.3948938741597 191.0537049626105 322.99992446559406 191.0537049626105Q338.73071984288845 191.0537049626105 347.74499584560766 181.42080217539092Q356.7592718483269 171.78789938817133 356.7592718483269 158.53161114887834Q356.7592718483269 141.21006118286883 338.73071984288845 130.60503059143443Q320.70216783744996 120.00000000000003 286.2358184152881 120.00000000000003Q249.47171236498224 120.00000000000003 224.1080142004683 131.31203263086337Q198.74431603595437 142.62406526172674 182.9251454037314 163.56900067980968Q167.10597477150841 184.5139360978926 158.6219502983609 213.85452073419447L123.80209985648463 335.6356220258328Q119.91358863962535 349.59891230455474 120.00196389455397 359.5853161114888Q120.09033914948259 369.57171991842284 125.74635546491427 374.7858599592114Q131.40237178034596 380.0 143.95165798020997 380.0Q162.33371100536294 380.0 175.23649822494147 376.73011556764106Q188.13928544452 373.46023113528213 194.8558048190951 367.5390890550646Q201.57232419367023 361.6179469748471 201.57232419367023 353.6641740312713Q201.57232419367023 347.30115567641064 199.62806858524058 342.4405166553365Q197.68381297681094 337.5798776342624 197.68381297681094 331.7471108089735Q197.68381297681094 328.9191026512577 198.3024397613113 324.7654656696125Q198.9210665458116 320.6118286879674 200.688571644384 313.45343303874915Q202.4560767429564 306.295037389531 205.63758592038675 294.27600271923865Q209.17259611753155 281.01971447994566 214.47511141324875 270.41468388851126Q219.77762670896595 259.80965329707686 226.05226980889796 252.65125764785864Q232.32691290882997 245.49286199864042 239.39693330311957 241.60435078178114Q246.46695369740917 237.71583956492185 253.89047511141325 237.71583956492185Q261.31399652541734 237.71583956492185 265.114132487348 242.66485384092456Q268.91426844927867 247.61386811692728 266.970012840849 256.0978925900748Q265.0257572324194 266.7029231815092 256.7184832691291 274.656696125085Q248.4112093058388 282.6104690686608 232.15016239897272 287.91298436437796Q215.88911549210667 293.2154996600952 189.73004003323513 296.22025832766826L190.4370420726641 315.48606390210745Q238.51318075383335 309.299796057104 269.97477150842207 299.75526852481306Q301.4363622630108 290.2107409925221 317.78578442480546 276.60095173351465Q334.1352065866002 262.9911624745072 336.60971372460153 244.78585995921145Q339.4377218823174 224.81305234534332 327.9489387415968 214.1196464989803Q316.4601556008762 203.42624065261728 293.48258931943496 203.42624065261728Q276.69129088299724 203.42624065261728 262.0209985648463 207.75662814411967Q247.35070624669538 212.08701563562207 235.5967973411889 220.30591434398372Q223.84288843568245 228.52481305234537 215.80074023717805 240.72059823249492Q207.7585920386736 252.9163834126445 204.2235818415288 268.8239292997961ZM216.77286804139285 304.52753229095856 226.31739557368383 345.71040108769546Q230.02915628068587 362.50169952413324 238.601556008762 371.25084976206665Q247.17395573683814 380.0 263.61175315356144 380.0Q278.98904751114134 380.0 291.8918347307199 374.1672331747111Q304.7946219502984 368.3344663494222 313.8088979530176 358.1713120326309Q322.8231739557368 348.0081577158396 325.6511821134527 334.57511896668933Q327.0651861923106 328.5656016315432 325.6511821134527 325.64921821889874Q324.23717803459476 322.7328348062543 321.05566885716445 321.8490822569681Q318.75791222902035 321.1420802175391 316.01827932623314 321.9374575118967Q313.2786464234459 322.7328348062543 309.56688571644384 325.73759347382736Q307.0923785784425 327.681849082257 304.175995165798 329.18422841604354Q301.25961175315354 330.68660774983005 298.0781025757233 330.68660774983005Q293.3058388095777 330.68660774983005 289.1522018279326 327.23997280761387Q284.9985648462875 323.7933378653977 282.52405770828614 314.9558123725357L275.807538333711 290.9177430319511Z" fill="#B0584F"/>
</svg>