<svg xmlns="http://www.w3.org/2000/svg" viewBox="-167 -1618 1693 1824">
  <g transform="scale(1,-1)">
    <path d="M540 623Q546 655 558.0 704.5Q570 754 587.5 819.0Q605 884 627.5 964.0Q650 1044 677 1136Q693 1189 708.5 1220.0Q724 1251 742.5 1264.0Q761 1277 785 1277Q828 1277 869.0 1241.0Q910 1205 954.0 1157.5Q998 1110 1048.0 1074.5Q1098 1039 1158 1039Q1247 1039 1298.0 1093.5Q1349 1148 1349 1223Q1349 1321 1247.0 1381.0Q1145 1441 950 1441Q742 1441 598.5 1377.0Q455 1313 365.5 1194.5Q276 1076 228 910L31 221Q9 142 9.5 85.5Q10 29 42.0 -0.5Q74 -30 145 -30Q249 -30 322.0 -11.5Q395 7 433.0 40.5Q471 74 471 119Q471 155 460.0 182.5Q449 210 449 243Q449 259 452.5 282.5Q456 306 466.0 346.5Q476 387 494 455Q514 530 544.0 590.0Q574 650 609.5 690.5Q645 731 685.0 753.0Q725 775 767 775Q809 775 830.5 747.0Q852 719 841 671Q830 611 783.0 566.0Q736 521 644.0 491.0Q552 461 404 444L408 335Q680 370 858.0 424.0Q1036 478 1128.5 555.0Q1221 632 1235 735Q1251 848 1186.0 908.5Q1121 969 991 969Q896 969 813.0 944.5Q730 920 663.5 873.5Q597 827 551.5 758.0Q506 689 486 599ZM557 397 611 164Q632 69 680.5 19.5Q729 -30 822 -30Q909 -30 982.0 3.0Q1055 36 1106.0 93.5Q1157 151 1173 227Q1181 261 1173.0 277.5Q1165 294 1147 299Q1134 303 1118.5 298.5Q1103 294 1082 277Q1068 266 1051.5 257.5Q1035 249 1017 249Q990 249 966.5 268.5Q943 288 929 338L891 474Z" fill="#B0584F"/>
  </g>
</svg>