<?xml version="1.0" encoding="utf-8"?>
<!-- Generator: Adobe Illustrator 23.0.1, SVG Export Plug-In . SVG Version: 6.00 Build 0)  -->
<svg version="1.1" id="Ebene_1" xmlns="http://www.w3.org/2000/svg" xmlns:xlink="http://www.w3.org/1999/xlink" x="0px" y="0px"
	 viewBox="0 0 9620.8 2749.4" style="enable-background:new 0 0 9620.8 2749.4;" xml:space="preserve">
<style type="text/css">
	.st0{fill:#0F1D46;}
</style>
<g id="g2446">
	<path id="path2452" class="st0" d="M8694.6,0c511.4,0,926.2,414.7,926.2,926.3c0,511.4-414.8,926.2-926.2,926.2
		s-926.2-414.8-926.2-926.2C7768.4,414.7,8183.2,0,8694.6,0 M9066.4,1301.2V374.1l-932.2,334.7v230.4l308.8-111.6v696.9
		L9066.4,1301.2z M8694.6,135.9c-436.4,0-790.3,353.8-790.3,790.4c0,436.4,353.9,790.3,790.3,790.3s790.2-353.9,790.2-790.3
		C9484.8,489.7,9131,135.9,8694.6,135.9 M1323.1,1811.2H814.5l244.1-835.1L1323.1,1811.2z M4697.1,2684.1l-27.5-257.8
		c-319.6,61.9-223.4-787-594.5-831.6c267.9-85.9,460.5-288.7,460.5-598c0-426.2-319.7-622-855.8-622c-329.9,0-756,17.1-841.9,17.1
		h-261.2v216.5c85.9,51.6,188.9,120.3,285.2,147.8v1591c-106.5,27.7-199.3,89.4-285.2,144.5v219.9h1061.8v-219.9
		c-58.4-51.6-120.3-106.6-199.3-144.5v-573.8h103.1c357.4,0,233.7,976.1,759.5,976.1C4429,2749.4,4580.2,2732.1,4697.1,2684.1
		 M3937.6,1075.7c0,226.8-113.4,367.7-343.7,367.7h-154.6V721.8c30.8-6.9,85.9-13.8,137.5-13.8
		C3837.9,708,3937.6,879.8,3937.6,1075.7 M7376.6,1502c0-811.1-412.3-1123.9-1158.1-1123.9c-312.8,0-701,13.8-886.7,13.8h-278.3
		v216.5c85.9,51.6,189,120.3,285.3,151.2v1584.2c-106.5,27.5-199.4,92.8-285.3,147.8v219.9h288.7c103.1,0,467.3,13.8,718.4,13.8
		C6809.5,2725.3,7376.6,2295.7,7376.6,1502 M6768.3,1553.4c0,560.2-244,807.7-556.7,807.7c-137.4,0-223.4-10.4-295.6-34.4V718.3
		c61.9-6.9,130.5-10.3,206.2-10.3C6637.7,708,6768.3,1099.8,6768.3,1553.4 M2285.4,2711.5v-219.9c-41.3-51.6-99.7-99.6-165-140.9
		l-677-1965.8h-567l-677,1965.8C123.8,2385,55,2436.6,0,2491.6v219.9h855.8v-219.9c-58.4-55-123.7-103-199.3-140.9l65.3-216.5h697.6
		l72.2,216.5c-75.7,34.3-147.8,85.8-209.7,140.9v219.9L2285.4,2711.5L2285.4,2711.5z"/>
</g>
</svg>
